# xmcd
#
# Track frame offsets:
#	150
#	15141
#	28164
#	43332
#	57300
#	72246
#	89987
#	104169
#	122233
#	136550
#	158287
#
# Disc length: 2339 seconds
#
# Revision: 1
# Processed by: cddbd v1.5.2PL0 Copyright (c) Steve Scherf et al.
# Submitted via: audiograbber 1.83.01
#
DISCID=9309210b
DTITLE=Travis List - What Else Would I Do
DYEAR=2007
DGENRE=Country
TTITLE0=I Wanna Go Somewhere
TTITLE1=I Don't Mean To Brag
TTITLE2=She's Doing Lonely Better Than Me
TTITLE3=Better Than I Know Myself
TTITLE4=One of These Days
TTITLE5=What Else Would I do
TTITLE6=I Pledge Allegiance To The Hag
TTITLE7=Better Than An Empty Room
TTITLE8=5 Star Honky Tonk 
TTITLE9=What I Pray For
TTITLE10=Old Me
EXTD=Topshelf Records 22007.
EXTT0=
EXTT1=
EXTT2=
EXTT3=
EXTT4=
EXTT5=
EXTT6=
EXTT7=
EXTT8=
EXTT9=
EXTT10=
PLAYORDER=
